<svg width="126" height="240" fill="none" xmlns="http://www.w3.org/2000/svg">
    <path d="M6 146.482h48.269v-20.119H41.787V94.374H23.533c-2.381 5.717-6.638 8.395-12.627 8.974v14.764h9.236v8.251H6v20.119ZM88.468 147.858c13.131 0 22.583-3.908 27.706-11.941 2.597-4.053 3.823-9.119 3.823-15.343 0-11.507-5.411-19.903-14.79-24.245C100.589 94.086 95.177 93 88.901 93c-12.844 0-22.656 4.487-27.995 12.81-2.598 4.053-3.968 8.974-3.968 14.764 0 18.6 11.544 27.284 31.53 27.284Zm0-19.613c-4.907 0-8.082-2.75-8.082-7.671 0-4.777 3.175-7.816 8.082-7.816 4.906 0 8.08 3.039 8.08 7.816 0 4.921-3.174 7.671-8.08 7.671Z" fill="#fff"/>
</svg>
