<svg width="126" height="240" fill="none" xmlns="http://www.w3.org/2000/svg">
    <path d="M9.322 169.063H114.29v-34.541H51.255c3.898-2.016 10.886-2.822 19.354-3.763 8.333-.941 17.203-2.285 25.133-4.569 7.526-2.285 13.843-6.317 17.471-12.634 1.748-3.226 2.688-7.123 2.688-11.827 0-19.488-15.456-31.45-50.937-31.45-35.347 0-53.491 11.962-55.104 38.976h41.933c.403-3.763 2.956-6.317 12.364-6.317 8.468 0 10.215 1.479 10.215 3.629 0 1.747-3.898 2.823-10.08 3.495-3.091.403-6.586.806-10.349 1.344-9.542 1.209-20.429 3.225-29.433 7.795-9.005 4.435-15.188 11.827-15.188 23.52v26.342Z" fill="#fff"/>
</svg>
