<svg width="126" height="240" fill="none" xmlns="http://www.w3.org/2000/svg">
    <path d="M63.185 170.342c38.304 0 55.776-12.365 55.776-32.122 0-13.306-9.14-18.682-22.042-20.966 13.306-3.092 19.891-9.543 19.891-20.026 0-11.155-6.451-19.757-21.235-24.595-7.392-2.554-16.934-3.63-29.03-3.63-24.192 0-40.992 4.167-49.997 15.323-4.435 5.376-6.72 12.902-7.123 22.444h40.454c.134-3.225 2.554-5.241 11.962-5.241 9.139 0 11.155 1.478 11.155 3.629 0 2.15-1.479 3.628-9.946 3.628H52.701v20.295h10.215c9.945 0 11.29.672 11.29 3.225 0 2.285-2.823 4.167-11.693 4.167-9.946 0-11.693-1.479-12.096-4.839H7.543c.134 12.365 2.822 22.176 10.752 28.627 8.064 6.72 21.773 10.081 44.89 10.081Z" fill="#fff"/>
</svg>
