<svg width="126" height="240" fill="none" xmlns="http://www.w3.org/2000/svg">
    <path d="M65.366 169.063c34.406 0 51.475-12.768 51.475-33.6 0-19.084-12.768-28.896-38.035-28.896-10.618 0-18.413 2.285-24.192 8.064l.806-11.961h25.805c14.38 0 22.579-1.344 26.88-6.048 4.57-4.704 5.51-12.903 5.51-26.343H16.579l-3.764 51.207 40.455 8.467c2.016-1.747 5.51-3.494 11.155-3.494 6.317 0 8.602 1.747 8.602 4.972 0 3.091-2.957 5.242-8.333 5.242-5.645 0-8.467-1.479-9.005-3.763h-46.1c1.748 15.321 8.334 26.073 24.193 31.853 7.795 2.822 18.278 4.3 31.584 4.3Z" fill="#fff"/>
</svg>
