<svg width="126" height="240" fill="none" xmlns="http://www.w3.org/2000/svg">
    <path d="M118.139 135.128c0-19.622-11.961-26.611-36.96-26.611-12.902 0-23.25 2.554-31.18 7.795.403-9.004 3.897-14.649 12.902-14.649 5.242 0 7.795 1.344 9.005 3.36h46.099c-3.898-18.547-13.171-28.493-28.09-32.794-7.526-2.285-16.128-3.36-26.61-3.36-36.423 0-56.18 18.01-56.18 51.879 0 21.369 6.586 36.153 23.386 43.948 8.332 3.898 19.488 5.78 33.734 5.78 21.235 0 37.632-5.108 47.04-15.725 4.57-5.242 6.854-11.693 6.854-19.623Zm-54.028.538c-5.108 0-8.468-1.613-10.618-4.166 3.763-2.554 8.333-4.704 14.246-4.704 5.242 0 6.855 1.478 6.855 4.032 0 3.091-2.688 4.838-10.483 4.838Z" fill="#fff"/>
</svg>
