<svg width="126" height="240" fill="none" xmlns="http://www.w3.org/2000/svg">
    <path d="M63.256 170.071c38.707 0 56.045-9.273 56.045-29.433 0-9.946-6.855-17.607-19.623-21.504 10.752-3.091 16.666-9.408 16.666-19.891 0-18.95-15.456-29.971-52.685-29.971-24.998 0-40.051 4.57-47.04 13.44-3.36 4.435-5.242 9.945-5.242 16.396 0 10.215 5.376 16.935 15.994 20.16C14.2 123.166 7.21 131.23 7.21 141.982c0 19.622 16.934 28.089 56.045 28.089Zm.537-58.598c-8.332 0-11.827-.806-11.827-3.629 0-2.688 3.898-4.032 11.827-4.032 8.602 0 11.962 1.344 11.962 4.032 0 2.823-3.629 3.629-11.962 3.629Zm0 24.058c-8.87 0-12.768-.672-12.768-3.764 0-2.822 4.301-4.166 12.768-4.166 9.14 0 12.768 1.344 12.768 4.166 0 3.092-3.897 3.764-12.768 3.764Z" fill="#fff"/>
</svg>
