<svg width="126" height="240" fill="none" xmlns="http://www.w3.org/2000/svg">
    <path d="M62.646 170.476c37.767 0 56.314-16.8 56.314-50.804 0-32.659-16.666-50.803-54.432-50.803-25.94 0-42.067 6.183-50.131 16.934-3.898 5.377-5.914 11.693-5.914 18.951 0 18.413 13.574 25.67 36.826 25.67 13.305 0 23.385-2.419 30.777-7.526-.134 9.542-3.091 15.053-12.633 15.053-5.645 0-7.796-1.479-8.736-4.032H7.273c3.36 18.681 13.037 28.761 28.493 33.331 7.527 2.15 16.666 3.226 26.88 3.226Zm-3.763-58.733c-5.107 0-6.854-1.613-6.854-4.167 0-3.091 2.688-5.51 10.617-5.51 5.78 0 9.543 1.613 11.29 5.242-3.898 2.688-8.736 4.435-15.053 4.435Z" fill="#fff"/>
</svg>
